<?xml version="1.0" encoding="utf-8"?><svg viewBox="0 0 471.7 471.7" xmlns="http://www.w3.org/2000/svg" xmlns:xlink="http://www.w3.org/1999/xlink"><style>:root>svg{display:none}:root>svg:target{display:block}</style><svg fill="none" viewBox="0 0 32 33" id="arrow" xmlns="http://www.w3.org/2000/svg"><path opacity=".5" fill-rule="evenodd" clip-rule="evenodd" d="M22.04 12.293a1 1 0 010 1.414l-5.333 5.334a1 1 0 01-1.414 0L9.96 13.707a1 1 0 011.414-1.414L16 16.92l4.626-4.626a1 1 0 011.414 0z" fill="currentColor"/></svg><svg viewBox="0 0 24 24" fill="none" stroke="currentColor" stroke-width="2" stroke-linecap="round" stroke-linejoin="round" class="bfeather bfeather-shopping-cart" id="basket" xmlns="http://www.w3.org/2000/svg"><circle cx="9" cy="21" r="1"/><circle cx="20" cy="21" r="1"/><path d="M1 1h4l2.68 13.39a2 2 0 002 1.61h9.72a2 2 0 002-1.61L23 6H6"/></svg><svg fill="none" viewBox="0 0 23 21" id="comparison" xmlns="http://www.w3.org/2000/svg"><path d="M1 1h20.698M1 8.625h20.698M1 16.25h9.804M15.161 16.25h6.536M18.43 12.983v6.536" stroke="currentColor" stroke-width="2" stroke-linecap="round"/></svg><svg viewBox="0 0 471.701 471.701" id="favorites" xmlns="http://www.w3.org/2000/svg"><path d="M433.601 67.001c-24.7-24.7-57.4-38.2-92.3-38.2s-67.7 13.6-92.4 38.3l-12.9 12.9-13.1-13.1c-24.7-24.7-57.6-38.4-92.5-38.4-34.8 0-67.6 13.6-92.2 38.2-24.7 24.7-38.3 57.5-38.2 92.4 0 34.9 13.7 67.6 38.4 92.3l187.8 187.8c2.6 2.6 6.1 4 9.5 4 3.4 0 6.9-1.3 9.5-3.9l188.2-187.5c24.7-24.7 38.3-57.5 38.3-92.4.1-34.9-13.4-67.7-38.1-92.4zm-19.2 165.7l-178.7 178-178.3-178.3c-19.6-19.6-30.4-45.6-30.4-73.3s10.7-53.7 30.3-73.2c19.5-19.5 45.5-30.3 73.1-30.3 27.7 0 53.8 10.8 73.4 30.4l22.6 22.6c5.3 5.3 13.8 5.3 19.1 0l22.4-22.4c19.6-19.6 45.7-30.4 73.3-30.4 27.6 0 53.6 10.8 73.2 30.3 19.6 19.6 30.3 45.6 30.3 73.3.1 27.7-10.7 53.7-30.3 73.3z"/></svg><svg fill="none" viewBox="0 0 84 18" id="line" xmlns="http://www.w3.org/2000/svg"><path d="M3 16.671L8.967 4.738c.77-1.54 2.967-1.54 3.737 0l4.098 8.195c.77 1.54 2.968 1.54 3.738 0l4.098-8.195c.77-1.54 2.968-1.54 3.738 0l4.097 8.195c.77 1.54 2.968 1.54 3.738 0l4.098-8.195c.77-1.54 2.968-1.54 3.738 0l4.098 8.195c.77 1.54 2.967 1.54 3.737 0l4.098-8.195c.77-1.54 2.968-1.54 3.738 0l4.098 8.195c.77 1.54 2.967 1.54 3.737 0l4.098-8.195c.77-1.54 2.968-1.54 3.738 0l5.967 11.933" stroke="currentColor" stroke-width="5.224"/></svg><svg fill="none" viewBox="0 0 22 22" id="profile" xmlns="http://www.w3.org/2000/svg"><path d="M21.944 18.851a.86.86 0 10-1.682.35.898.898 0 01-.182.753.873.873 0 01-.688.327H2.608a.873.873 0 01-.688-.326.898.898 0 01-.182-.753c.892-4.284 4.67-7.413 9.034-7.519a5.744 5.744 0 00.457 0 9.454 9.454 0 017.635 4.196.86.86 0 101.427-.957 11.178 11.178 0 00-5.792-4.4 5.839 5.839 0 002.345-4.678A5.85 5.85 0 0011 0a5.85 5.85 0 00-5.844 5.844c0 1.912.924 3.613 2.348 4.68a11.167 11.167 0 00-3.601 1.98A11.212 11.212 0 00.056 18.85 2.61 2.61 0 002.608 22h16.784a2.61 2.61 0 002.552-3.149zM6.875 5.844A4.13 4.13 0 0111 1.719a4.13 4.13 0 014.125 4.125 4.13 4.13 0 01-3.916 4.12 11.251 11.251 0 00-.417 0 4.13 4.13 0 01-3.917-4.12z" fill="currentColor"/></svg><svg fill="none" viewBox="0 0 13 16" id="tel" xmlns="http://www.w3.org/2000/svg"><path d="M1.231 4.608c-.229-1.507.835-2.862 2.459-3.358a1.184 1.184 0 011.455.717l.52 1.39a1.199 1.199 0 01-.31 1.304l-1.552 1.42a.6.6 0 00-.182.564l.015.062.037.156c.193.757.487 1.484.873 2.163a8.708 8.708 0 001.554 1.95l.048.043a.6.6 0 00.577.124l2.006-.632a1.198 1.198 0 011.284.382l.95 1.152c.395.48.347 1.184-.107 1.607-1.243 1.16-2.952 1.397-4.141.441a15.26 15.26 0 01-3.624-4.23A14.9 14.9 0 011.23 4.609h.001zm3.647 2.116l1.285-1.18a2.397 2.397 0 00.625-2.608l-.52-1.39A2.383 2.383 0 003.34.104C1.322.721-.297 2.53.046 4.79c.24 1.578.792 3.584 2.011 5.679a16.46 16.46 0 003.91 4.56c1.783 1.432 4.163.944 5.71-.497a2.374 2.374 0 00.214-3.246l-.95-1.153a2.397 2.397 0 00-2.569-.762l-1.665.524a7.915 7.915 0 01-1.121-1.466 7.512 7.512 0 01-.708-1.703v-.001z" fill="currentColor"/></svg></svg>