<svg width="32" height="32" fill="none" xmlns="http://www.w3.org/2000/svg"><g clip-path="url(#clip0_1018_7884)" fill="#B1BEDA"><path d="M23.428 6.857c.113 0 .223.034.317.096l.826.55v-2.93h-2.286v2.932l.826-.55a.571.571 0 01.317-.097zM12 6.857A3.429 3.429 0 1012 0a3.429 3.429 0 000 6.857z"/><path d="M28 13.714V4.572h-2.286v4a.571.571 0 01-.888.475l-1.398-.933-1.397.932a.571.571 0 01-.888-.474v-4h-2.286v9.142H28zM4.442 31.76a1.18 1.18 0 001.603-.202l4-5.143c.096-.125.165-.269.205-.422l.857-3.436-1.843-2.049-1.144 4.577a.56.56 0 01-.104.212L4.24 30.155a1.143 1.143 0 00.203 1.604v.001z"/><path d="M13.02 10.723a.93.93 0 00-.145-.213.579.579 0 01-.057-.098.5.5 0 01-.044-.073.552.552 0 01-.035-.178c0-.01-.006-.02-.006-.03v-.006l.183-2.218a4.571 4.571 0 01-2.285-.117l-.286 3.451-.617 7.38-.011.138c-.026.316.08.628.292.863l4.7 5.22a.572.572 0 01.147.383v5.632a1.143 1.143 0 102.286 0v-6.286a1.13 1.13 0 00-.292-.764l-4.612-5.121-.041-.048a.572.572 0 01-.138-.422l.262-3.135-.778-1.021a.572.572 0 01.914-.689l.901 1.185 1.548 1.844a.53.53 0 01.074.114c.193.387.588.63 1.02.629h8a1.143 1.143 0 000-2.286h-6.943a.571.571 0 01-.42-.183l-3.526-3.817a.604.604 0 01-.092-.134z"/></g><defs><clipPath id="clip0_1018_7884"><path fill="#fff" d="M0 0h32v32H0z"/></clipPath></defs></svg>