<svg width="32" height="32" fill="none" xmlns="http://www.w3.org/2000/svg"><path d="M10.333 5.333a1 1 0 00-2 0v2.422a4.5 4.5 0 00-3.83 3.865l-.115.87c-.02.148-.038.296-.056.443a.657.657 0 00.656.734h22.024a.657.657 0 00.656-.734 41.239 41.239 0 00-.056-.443l-.116-.87a4.5 4.5 0 00-3.83-3.865V5.333a1 1 0 10-2 0v2.224a63.882 63.882 0 00-11.333 0V5.333zM27.926 16.3a.658.658 0 00-.66-.633H4.735a.658.658 0 00-.661.634 38.66 38.66 0 00.439 7.213 4.013 4.013 0 003.57 3.377l1.592.157c4.206.415 8.444.415 12.65 0l1.591-.157a4.013 4.013 0 003.571-3.377c.372-2.388.518-4.803.44-7.213z" fill="#B1BEDA"/></svg>