<svg width="24" height="24" fill="none" xmlns="http://www.w3.org/2000/svg"><g clip-path="url(#clip0_8481_28945)"><path d="M22.25 10.594v.562a.844.844 0 01-.844.844h-.281l-.918 6.426a1.688 1.688 0 01-1.67 1.45H5.713c-.84 0-1.552-.618-1.671-1.45L3.125 12h-.281A.844.844 0 012 11.156v-.562c0-.466.378-.844.844-.844H5.21l3.754-5.162a1.125 1.125 0 011.82 1.324L7.993 9.75h8.264l-2.792-3.838a1.125 1.125 0 111.82-1.324l3.754 5.162h2.367c.466 0 .844.378.844.844zm-9.281 6.187v-3.937a.844.844 0 00-1.688 0v3.937a.844.844 0 001.688 0zm3.937 0v-3.937a.844.844 0 10-1.687 0v3.937a.844.844 0 001.687 0zm-7.875 0v-3.937a.844.844 0 10-1.687 0v3.937a.844.844 0 001.687 0z" fill="#fff"/></g><defs><clipPath id="clip0_8481_28945"><path fill="#fff" transform="translate(2 3)" d="M0 0h20.25v18H0z"/></clipPath></defs></svg>