<svg width="225" height="222" fill="none" xmlns="http://www.w3.org/2000/svg"><g clip-path="url(#clip0_194_6378)"><path d="M178.16 162.526c27.472-34.204 22.015-84.203-12.189-111.676-34.205-27.472-84.204-22.014-111.676 12.19-27.473 34.205-22.015 84.203 12.19 111.676 34.204 27.472 84.203 22.015 111.675-12.19z" fill="#FFD05D"/><path d="M185.805 74.3A79.441 79.441 0 0176 151.856a79.45 79.45 0 01-39.066-34.947 79.437 79.437 0 10148.871-42.607z" fill="#FDC453"/><path d="M52.373 86.217a73.742 73.742 0 01137.179 26.106 73.747 73.747 0 00-49.38-69.213 73.753 73.753 0 00-97.397 79.915 73.385 73.385 0 019.598-36.808z" fill="#FFD77F"/><path d="M106.552 88.192a14.715 14.715 0 00-23.539-13.656 2.367 2.367 0 002.033 4.162c5.944-1.547 13.7-1.092 16.909 9.855a2.372 2.372 0 002.442 1.645 2.366 2.366 0 002.155-2.006zm59.391 33.67a14.718 14.718 0 00-23.539-13.655 2.362 2.362 0 00-.672 2.905 2.37 2.37 0 002.704 1.257c5.945-1.547 13.7-1.092 16.91 9.855a2.375 2.375 0 002.214 1.706 2.365 2.365 0 002.407-2.054l-.024-.014z" fill="#303030"/><path d="M77.944 108.288l.06-.106c3.91-6.899 2.5-16.032-4.998-20.284-5.959-3.378-11.839-1.055-15.285 2.283 1.079-4.68.06-10.914-5.898-14.292-7.5-4.252-16.06-.771-19.972 6.128l-.06.105c-.855 1.508-9.509 16.773 6.526 42.265 30.113.682 38.828-14.559 39.627-16.099z" fill="#EE5181"/><path d="M94.402 151.192a13.053 13.053 0 01-6.628-12.471 13.044 13.044 0 018.605-11.197 12.964 12.964 0 011.482-8.887 13.097 13.097 0 0114.295-6.32 13.09 13.09 0 0110.163 11.873 2.248 2.248 0 01-2.06 2.583 2.23 2.23 0 01-1.699-.605 2.238 2.238 0 01-.706-1.66 8.61 8.61 0 10-16.578 3.789 2.225 2.225 0 01-.131 1.934 2.235 2.235 0 01-1.593 1.106 8.602 8.602 0 105.203 16.201 2.246 2.246 0 013.014 1.012 2.246 2.246 0 01-1.013 3.015 13.114 13.114 0 01-12.354-.373z" fill="#5E4939"/></g><defs><clipPath id="clip0_194_6378"><path fill="#fff" transform="rotate(29.551 39.175 148.53)" d="M0 0h167.995v158.862H0z"/></clipPath></defs></svg>