<svg width="149" height="149" fill="none" xmlns="http://www.w3.org/2000/svg"><g clip-path="url(#clip0_194_6391)"><path d="M127.126 102.177c15.303-29.082 4.133-65.064-24.949-80.367C73.095 6.507 37.113 17.677 21.81 46.76c-15.303 29.082-4.133 65.064 24.949 80.367 29.082 15.303 65.064 4.133 80.367-24.949z" fill="#F94343"/><path d="M89.14 16.738a59.513 59.513 0 0114.517 72.697 59.512 59.512 0 01-67.594 30.44 59.502 59.502 0 0091.278-18.251 59.504 59.504 0 00-38.2-84.886z" fill="#E53939"/><path d="M27.222 95.706a55.238 55.238 0 0184.601-61.516 55.25 55.25 0 00-63.114-8.53 55.244 55.244 0 00-6.31 94.163 54.972 54.972 0 01-15.177-24.117z" fill="#F76363"/><path d="M105.849 57.468l-.048-.153c-3.104-10-13.17-16.904-24.038-13.53-8.666 2.69-11.713 10.441-11.608 16.76-3.518-5.282-10.446-9.914-19.06-7.24-10.866 3.373-15.251 14.77-12.149 24.764l.048.153c.616 2.2 7.543 24.301 46.567 31.951C113.4 81.767 106.586 59.63 105.85 57.468z" fill="#fff"/></g><defs><clipPath id="clip0_194_6391"><path fill="#fff" transform="rotate(-17.246 116.324 17.64)" d="M0 0h119v119H0z"/></clipPath></defs></svg>