<svg width="177" height="177" fill="none" xmlns="http://www.w3.org/2000/svg"><g clip-path="url(#clip0_194_6400)"><path d="M152.279 70.507c-9.742-35.414-46.348-56.225-81.761-46.483-35.414 9.742-56.225 46.348-46.483 81.762 9.742 35.413 46.347 56.224 81.761 46.482 35.414-9.742 56.225-46.347 46.483-81.761z" fill="#4A85D3"/><path d="M96.155 22.06a66.512 66.512 0 01-44.078 121.916 66.506 66.506 0 00102.182-62.684 66.51 66.51 0 00-30.243-49.19 66.504 66.504 0 00-27.86-10.043z" fill="#407EC1"/><path d="M38.82 118.451a61.738 61.738 0 0184.974-80.292 61.748 61.748 0 00-71.18-.425 61.744 61.744 0 006.478 105.278 61.444 61.444 0 01-20.272-24.561z" fill="#5B9ADD"/><path d="M116.445 57.904l-20.99 9.611a.897.897 0 01-1.262-.658c-.529-3.422-1.962-6.739-3.384-9.846a59.773 59.773 0 00-2.643-5.491 11.008 11.008 0 00-4.169-4.381 7.412 7.412 0 00-6.47-.47c-4.796 2.195-3.404 7.239-2.104 11.26 1.508 4.681 3.425 9.355 3.32 14.355-.077 3.467-.888 6.85-3.393 9.456a37.603 37.603 0 01-5.58 5.13.89.89 0 00-.296 1.096L83.684 119a.894.894 0 00.853.552.894.894 0 00.349-.081l8.583-3.93a.904.904 0 01.813.031 10.2 10.2 0 009.163.335l26.907-12.319a7.88 7.88 0 003.876-10.407 6.847 6.847 0 00-2.009-2.513.871.871 0 01-.238-1.083c.886-1.813.653-4.907-.26-6.9l-.363-.795a6.886 6.886 0 00-2.009-2.513.891.891 0 01-.238-1.084 6.914 6.914 0 00.124-6.063l-.364-.794a6.867 6.867 0 00-1.973-2.53.878.878 0 01-.239-1.083 6.933 6.933 0 00.117-6.06 7.863 7.863 0 00-10.331-3.86zM61.206 86.586L48.529 92.39a2.138 2.138 0 00-1.054 2.834l16.227 35.44a2.138 2.138 0 002.833 1.054l12.677-5.804a2.138 2.138 0 001.054-2.834L64.039 87.64a2.138 2.138 0 00-2.834-1.054z" fill="#fff"/></g><defs><clipPath id="clip0_194_6400"><path fill="#fff" transform="rotate(-24.601 126.963 27.684)" d="M0 0h133v133H0z"/></clipPath></defs></svg>