<svg width="170" height="171" fill="none" xmlns="http://www.w3.org/2000/svg"><g clip-path="url(#clip0_194_6336)"><path d="M144.621 124.248c21.346-33.084 11.83-77.209-21.254-98.555-33.085-21.346-77.21-11.83-98.556 21.254-21.346 33.084-11.83 77.209 21.254 98.555 33.085 21.346 77.21 11.831 98.556-21.254z" fill="#FFD05D"/><path d="M108.346 18.257a71.3 71.3 0 01-74.277 117.457 71.293 71.293 0 0088.35 10.277 71.286 71.286 0 0033.085-52.318A71.287 71.287 0 00135.195 35.2a71.282 71.282 0 00-26.849-16.942z" fill="#FDC453"/><path d="M26.081 105.934a66.181 66.181 0 01107.485-64.445 66.192 66.192 0 00-96.692-1.756 66.19 66.19 0 004.762 96.591 65.864 65.864 0 01-15.555-30.39z" fill="#FFD77F"/><path d="M60.526 73.12c1.03 4.775-.432 9.145-3.268 9.757-2.837.612-5.97-2.768-7-7.542-1.03-4.775.444-9.131 3.272-9.741 2.83-.61 5.965 2.743 6.996 7.526zm51.352-11.074c1.029 4.774-.432 9.145-3.269 9.757-2.837.612-5.97-2.768-7-7.543-1.029-4.774.436-9.129 3.273-9.74 2.837-.612 5.964 2.743 6.996 7.526z" fill="#303030"/><path d="M39.342 102.279a48.214 48.214 0 0055.832 31.667 48.217 48.217 0 0037.82-51.864L39.342 102.28z" fill="#695342"/><path d="M60.024 128.08a48.167 48.167 0 0063.81-12.691l-.651-.921c-34.75-8.548-62.77 13.314-63.159 13.612z" fill="#F06669"/></g><defs><clipPath id="clip0_194_6336"><path fill="#fff" transform="rotate(-12.17 145.102 15.468)" d="M0 0h142.574v142.574H0z"/></clipPath></defs></svg>