<svg width="183" height="183" fill="none" xmlns="http://www.w3.org/2000/svg"><g clip-path="url(#clip0_194_6349)"><path d="M125.163 155.414c35.553-18.848 49.095-62.95 30.247-98.502-18.848-35.554-62.95-49.096-98.502-30.248-35.554 18.849-49.096 62.95-30.248 98.503 18.849 35.553 62.95 49.095 98.503 30.247z" fill="#FFD05D"/><path d="M145.727 42.782A72.87 72.87 0 0120.849 110.45a72.866 72.866 0 0041.721 47.557 72.865 72.865 0 00100.215-54.303 72.86 72.86 0 00-17.058-60.92z" fill="#FDC453"/><path d="M28.592 79.903A67.638 67.638 0 01156.62 76.09a67.65 67.65 0 00-85.353-49.837 67.647 67.647 0 00-43.974 88.517 67.312 67.312 0 011.3-34.867z" fill="#FFD77F"/><path d="M60.289 89.43a2.41 2.41 0 00-4.513 1.36 36.515 36.515 0 0064.357 20.459 2.397 2.397 0 00.021-3.023 2.4 2.4 0 00-2.953-.649c-13.222 6.777-39.178 14.196-56.912-18.147z" fill="#5E4939"/><path d="M113.693 81.32a13.502 13.502 0 009.366 11.745 13.507 13.507 0 0014.43-4.179 2.17 2.17 0 00-1.207-3.517 2.172 2.172 0 00-1.447.19c-5.016 2.564-12.044 3.696-17.096-5.474a2.18 2.18 0 00-1.264-1.04 2.166 2.166 0 00-2.782 2.275zM53.847 62.943a13.497 13.497 0 0023.787 7.564 2.171 2.171 0 00-2.645-3.325c-5.016 2.564-12.052 3.694-17.097-5.473a2.18 2.18 0 00-1.263-1.041 2.205 2.205 0 00-1.27.003 2.154 2.154 0 00-1.512 2.272z" fill="#303030"/><path d="M33.118 97.165c6.716 2.061 13.83-1.71 15.893-8.426 2.062-6.715-1.71-13.83-8.425-15.892-6.715-2.062-13.83 1.71-15.893 8.425-2.062 6.715 1.71 13.83 8.425 15.892zm102.411 31.447c6.715 2.062 13.83-1.71 15.892-8.425 2.062-6.716-1.71-13.831-8.425-15.893-6.715-2.062-13.831 1.71-15.893 8.425-2.062 6.715 1.711 13.831 8.426 15.893z" fill="#F5A6AC"/></g><defs><clipPath id="clip0_194_6349"><path fill="#fff" transform="rotate(17.07 21.387 142.505)" d="M0 0h145.714v145.714H0z"/></clipPath></defs></svg>