<svg width="183" height="183" fill="none" xmlns="http://www.w3.org/2000/svg"><g clip-path="url(#clip0_194_6364)"><path d="M156.245 124.156c18.032-35.753 3.666-79.355-32.087-97.387-35.753-18.032-79.354-3.666-97.386 32.087-18.033 35.753-3.667 79.355 32.086 97.387 35.753 18.032 79.355 3.666 97.387-32.087z" fill="#FFD05D"/><path d="M146.32 43.936a72.515 72.515 0 01-83.306 90.088A72.51 72.51 0 0121.5 110.241a72.509 72.509 0 0072.858 53.615 72.514 72.514 0 0055.597-29.534 72.498 72.498 0 00-3.636-90.386z" fill="#FDC453"/><path d="M29.458 79.91a67.308 67.308 0 01127.426-2.74 67.317 67.317 0 10-129.007 37.424 66.985 66.985 0 011.58-34.684z" fill="#FFD77F"/><path d="M57.64 96.358a31.013 31.013 0 0058.758 18.576L57.64 96.358z" fill="#695342"/><path d="M60.993 117.383a31.008 31.008 0 0039.702 13.247l-.075-.72c-16.692-15.857-39.316-12.581-39.627-12.527z" fill="#F06669"/><path d="M88.321 68.385l.031-.098c2.018-6.382-.756-13.691-7.699-15.886-5.515-1.744-9.964 1.212-12.23 4.572.084-4.05-1.865-9.028-7.38-10.772-6.943-2.195-13.406 2.194-15.424 8.577l-.03.097c-.439 1.387-4.908 15.523 12.805 33.79 25.028-4.755 29.53-18.88 29.927-20.28zm61.792 19.535l.031-.097c2.018-6.383-.748-13.69-7.69-15.884-5.515-1.744-9.965 1.212-12.231 4.572.085-4.05-1.865-9.029-7.38-10.772-6.942-2.195-13.398 2.196-15.416 8.579l-.03.097c-.439 1.387-4.908 15.523 12.806 33.791 25.003-4.763 29.512-18.886 29.91-20.286z" fill="#E62728"/></g><defs><clipPath id="clip0_194_6364"><path fill="#fff" transform="rotate(17.544 20.435 143.565)" d="M0 0h145v145H0z"/></clipPath></defs></svg>