<svg width="20" height="20" fill="none" xmlns="http://www.w3.org/2000/svg"><path d="M8.558 9.515c.418.582.79 1.283 1.06 2.014l1.312.105c.403-1.358.94-2.328 1.522-3.089.866.328 1.97.314 2.611-.239 1.104-.954 1-3.85.716-5.52-.044-.299-.432-.388-.611-.15-1.537 1.97-4.238 2.239-4.193 4.134.015.403.09.656.373.955 1.134-1.448 2.551-1.925 2.626-1.955.015 0 .03-.015.03-.015-.18.12-.82.671-1.507 1.507-.836.88-1.627 2-2.208 3.775a9.242 9.242 0 00-.925-1.746 9.213 9.213 0 00-1.85-2.268c.014 0 .014 0 .03.015.059.03 1.253.478 2.193 1.746.253-.254.328-.463.343-.806.09-1.626-2.223-1.925-3.477-3.655-.149-.21-.477-.135-.537.119-.283 1.417-.462 3.894.463 4.745.492.447 1.313.507 2.029.328zm5.759 3.625c-.313.105-.836.24-1.403.359-.208.328-.582.597-1.148.686-.135.03-.284.03-.448.03-.403 0-.865-.045-1.388-.104-.03 0-.074 0-.104-.015-.12-.015-.239-.105-.239-.24-.015-.163.12-.283.284-.268.044 0 .074.015.119.015.671.075 1.298.135 1.7.075.747-.12.956-.567.926-.955-.03-.313-.254-.612-.627-.597-.522.03-1.134-.03-1.73-.074-.687-.06-1.388-.09-1.88-.045-.553.06-1.686.447-2.686 1.104-.493.328-1.045.701-1.373.94a.364.364 0 00-.074.522l1.402 1.895a.36.36 0 00.507.075l.538-.403a.534.534 0 01.447-.075c.97.328 2 .552 2.67.597 1.478.105 4.343-1.596 5.178-2.148.806-.553.24-1.701-.671-1.373z" fill="#043E44"/></svg>