<svg width="26" height="26" fill="none" xmlns="http://www.w3.org/2000/svg"><g clip-path="url(#clip0_239_3396)"><circle cx="13" cy="13" r="13" fill="#fff"/><path d="M0 12.985C0 5.829 5.85-.022 13.007-.001A12.994 12.994 0 0126 12.997c.018 7.168-5.856 13.018-13.019 13.003C5.82 25.984 0 20.148 0 12.985zm13.029 6.178l.005.063c.985-.091 1.971-.167 2.95-.28.646-.074 1.285-.192 1.87-.515 1.86-1.031 2.83-2.617 2.933-4.728.047-.97.086-1.946.041-2.915a11.516 11.516 0 00-.334-2.15c-.228-.946-.848-1.664-1.557-2.3-.588-.526-1.243-.979-2.026-1.108a34.293 34.293 0 00-3.274-.368 15.431 15.431 0 00-2.283.052 14.47 14.47 0 00-2.302.334c-1.383.345-2.38 1.253-3.12 2.44a3.81 3.81 0 00-.465 1.119 13.544 13.544 0 00-.295 4.538c.073.728.15 1.48.387 2.164.533 1.53 1.65 2.549 3.14 3.153.171.069.23.148.226.328-.012.45 0 .898-.006 1.348 0 .346.123.61.45.752.296.128.571.055.845-.227.454-.467.915-.932 1.354-1.413.196-.214.392-.339.7-.295.253.02.507.023.761.008z" fill="#6F3EA9"/><path d="M9.554 18.916v-1.245c0-.175-.053-.258-.23-.33-1.388-.57-2.339-1.508-2.575-3.063A14.291 14.291 0 016.754 9.7c.244-1.439 1.409-2.809 2.724-3.063a19.97 19.97 0 012.746-.324c1.38-.07 2.763.023 4.12.28.932.173 1.595.738 2.192 1.417.492.562.65 1.244.755 1.956.24 1.611.19 3.252-.149 4.846a.8.8 0 01-.029.123c-.492 1.255-1.364 2.136-2.68 2.447-1.212.285-2.462.352-3.71.324a.624.624 0 00-.508.216 219.64 219.64 0 01-2.305 2.369 1.2 1.2 0 01-.267.158 1.172 1.172 0 01-.085-.292c-.009-.412-.004-.828-.004-1.242zm4.1-4.868a4.174 4.174 0 01-.414-.109c-1.076-.418-1.738-1.22-2.126-2.283a.449.449 0 01.127-.529c.094-.084.196-.162.293-.244.267-.23.358-.545.167-.839a22.051 22.051 0 00-1.044-1.464.448.448 0 00-.618-.116 4.781 4.781 0 00-.885.701c-.298.317-.379.712-.147 1.12.049.098.09.2.125.304 1.074 2.698 3.012 4.505 5.704 5.542.385.148.725.123 1.012-.135a4.25 4.25 0 00.718-.837c.204-.316.146-.543-.154-.774-.428-.33-.867-.648-1.316-.952-.314-.212-.63-.15-.885.135a2.441 2.441 0 01-.227.272 2.392 2.392 0 01-.33.207v.001zm-.53-6.102h-.178c-.167 0-.31.075-.29.238.012.091.158.195.267.237.138.04.281.058.425.056 1.37.102 2.604 1.126 2.937 2.466.095.383.112.785.16 1.179.02.169.078.313.268.305.189-.008.235-.143.22-.305l-.05-.61a3.918 3.918 0 00-3.763-3.563l.004-.003zm2.792 3.633h.011c-.02-.15-.04-.305-.066-.45a2.66 2.66 0 00-2.516-2.158.445.445 0 00-.31.109c-.133.15 0 .343.239.371.567.067 1.091.227 1.511.64a2.147 2.147 0 01.641 1.554c0 .18.021.374.242.375.241 0 .256-.203.248-.39v-.05zm-2.275-1.547c-.163-.018-.32 0-.346.196-.025.196.128.269.305.291h.05a.778.778 0 01.726.601c.035.121.027.26.087.364a.353.353 0 00.254.18c.07 0 .177-.15.183-.24a1.29 1.29 0 00-1.259-1.392z" fill="#6F3EA9"/></g><defs><clipPath id="clip0_239_3396"><path fill="#fff" d="M0 0h26v26H0z"/></clipPath></defs></svg>