<svg width="26" height="26" fill="none" xmlns="http://www.w3.org/2000/svg"><g clip-path="url(#clip0_239_3402)"><circle cx="13" cy="13" r="13" fill="#fff"/><path d="M13.004 0C20.226.055 26.012 5.795 26 13.016c-.01 7.245-5.78 12.99-13.015 12.984A12.948 12.948 0 01.959 17.95 12.93 12.93 0 010 12.959C.033 5.737 5.786.064 13.004 0zm.01 4.798c-.571.071-1.15.102-1.71.22a8.116 8.116 0 00-6.418 7.856 8.106 8.106 0 00.776 3.537c.055.128.073.27.05.407-.251 1.277-.52 2.55-.771 3.828-.084.424.101.59.528.49 1.222-.288 2.451-.585 3.68-.863a.77.77 0 01.455.04c1.776.787 3.603.961 5.483.46 4.119-1.097 6.654-5.123 5.88-9.337-.701-3.833-4.098-6.614-7.954-6.638z" fill="#27A71A"/><path d="M7.158 18.846c.134-.64.236-1.246.39-1.84a1.526 1.526 0 00-.141-1.202 5.8 5.8 0 01-.695-3.21c.19-2.978 2.306-5.313 5.139-5.832a6.289 6.289 0 017.373 4.964 6.28 6.28 0 01-4.967 7.369 6.162 6.162 0 01-4.277-.646.897.897 0 00-.72-.083c-.612.166-1.233.298-1.851.443-.077.021-.147.021-.25.037zm8.06-1.95c.932.077 1.569-.518 2.063-1.323.218-.355.048-.761-.348-.905-.095-.034-.193-.062-.29-.09-.293-.084-.595-.143-.877-.253-.509-.203-.916-.133-1.287.31-.305.367-.503.383-.91.141a8.404 8.404 0 01-2.367-2.1c-.25-.324-.232-.514.02-.847l.26-.345a.61.61 0 00.07-.627 32.15 32.15 0 00-.651-1.46c-.195-.407-.62-.51-.97-.221a4.65 4.65 0 00-.562.578c-.32.369-.486.845-.466 1.332a3.66 3.66 0 00.553 1.852 9.359 9.359 0 003.732 3.468 4.119 4.119 0 002.03.49z" fill="#27A71A"/></g><defs><clipPath id="clip0_239_3402"><path fill="#fff" d="M0 0h26v26H0z"/></clipPath></defs></svg>